# xmcd
#
# Track frame offsets: 
#        150
#        17244
#        33697
#        51599
#        68803
#        86255
#        102549
#        120913
#        136679
#        154973
#        170190
#        186922
#
# Disc length: 2752 seconds
#
# Revision: 0
# Processed by: cddbd v1.5.1PL2 Copyright (c) Steve Scherf et al.
# Submitted via: ExactAudioCopy v0.95b3
#
DISCID=a70abe0c
DTITLE=Siriporn Umpaipong - Ruam Hits - Love Diary
DYEAR=2003
DGENRE=Country
TTITLE0=Parinya jai
TTITLE1=Tum barb bor long
TTITLE2=Yark luem fan kao
TTITLE3=Salawun song sarn jai
TTITLE4=Kwam jon wud jai
TTITLE5=Ruk raek mai ard luem
TTITLE6=Raeng jai rai wun
TTITLE7=Song khon bon tang jai
TTITLE8=Ai song bud chern
TTITLE9=Fark kum kor-tod
TTITLE10=Puen tae kuer nam ta
TTITLE11=Soo puer nong dai mai
EXTD=
EXTT0=
EXTT1=
EXTT2=
EXTT3=
EXTT4=
EXTT5=
EXTT6=
EXTT7=
EXTT8=
EXTT9=
EXTT10=
EXTT11=
PLAYORDER=
